<svg xmlns="http://www.w3.org/2000/svg" xmlns:xlink="http://www.w3.org/1999/xlink" width="610" zoomAndPan="magnify" viewBox="0 0 457.5 119.999999" height="160" preserveAspectRatio="xMidYMid meet" version="1.0"><defs><g/><clipPath id="37542dccbc"><path d="M 0 0.0664062 L 152.832031 0.0664062 L 152.832031 119.183594 L 0 119.183594 Z M 0 0.0664062 " clip-rule="nonzero"/></clipPath></defs><g clip-path="url(#37542dccbc)"><path fill="#ffe5b7" d="M 151.808594 104.265625 C 151.507812 103.765625 120.695312 53.429688 115.597656 42.070312 C 110.402344 31.34375 115.898438 30.445312 119.59375 22.550781 C 122.460938 16.386719 120.660156 12.921875 115.464844 11.523438 L 115.464844 2.09375 C 115.464844 1.160156 114.730469 0.429688 113.796875 0.429688 C 112.867188 0.429688 112.132812 1.160156 112.132812 2.09375 L 112.132812 11.253906 C 107.734375 11.15625 101.371094 15.621094 99.40625 17.683594 C 97.441406 15.621094 91.113281 11.15625 86.714844 11.253906 L 86.714844 2.09375 C 86.714844 1.160156 85.980469 0.429688 85.050781 0.429688 C 84.117188 0.429688 83.382812 1.160156 83.382812 2.09375 L 83.382812 11.523438 C 74.253906 13.621094 78.554688 22.75 82.71875 28.246094 C 88.78125 35.175781 83.015625 42.46875 78.019531 52.03125 L 78.019531 27.378906 C 78.054688 24.582031 77.019531 20.417969 74.886719 19.019531 C 74.457031 18.75 71.390625 16.886719 65.925781 14.71875 C 58.765625 11.855469 54.433594 8.289062 51.902344 3.425781 C 51.636719 2.925781 51.070312 2.660156 50.503906 2.628906 C 50.503906 2.628906 27.382812 2.628906 27.382812 2.628906 C 26.75 2.628906 26.183594 2.992188 25.882812 3.527344 C 23.453125 8.324219 19.023438 11.886719 11.960938 14.71875 C 6.53125 16.886719 3.429688 18.785156 3.097656 18.984375 C 0.867188 20.351562 -0.132812 24.546875 -0.132812 27.378906 C -0.132812 27.378906 -0.132812 99.304688 -0.132812 99.304688 C -0.132812 100.234375 0.601562 100.96875 1.53125 100.96875 C 3.929688 100.769531 10.328125 101.601562 12.324219 100.136719 C 12.625 100.636719 13.125 100.96875 13.757812 100.96875 L 19.253906 100.96875 C 28.117188 100.96875 35.710938 95.570312 38.976562 87.875 C 41.109375 92.941406 45.140625 97.003906 50.171875 99.203125 L 47.070312 104.300781 C 46.671875 104.964844 46.773438 105.867188 47.371094 106.398438 C 47.9375 106.933594 61.261719 119.089844 71.390625 119.089844 L 127.589844 119.089844 C 137.71875 119.089844 151.007812 106.898438 151.574219 106.398438 C 152.140625 105.867188 152.277344 105 151.875 104.300781 Z M 74.65625 97.605469 L 68.59375 97.605469 C 67.058594 97.605469 65.792969 96.339844 65.792969 94.804688 C 65.894531 86.246094 65.496094 58.960938 66.195312 50.933594 C 67.125 41.238281 67.960938 30.675781 73.554688 22.449219 C 74.289062 23.882812 74.6875 25.613281 74.6875 27.378906 C 74.6875 27.378906 74.6875 97.636719 74.6875 97.636719 Z M 52.402344 24.949219 L 54.832031 27.445312 L 41.175781 55.496094 C 45.371094 41.238281 50.9375 26.847656 52.101562 11.957031 L 55.632812 19.882812 L 52.5 22.480469 C 51.769531 23.082031 51.703125 24.28125 52.367188 24.914062 Z M 25.351562 22.480469 L 22.21875 19.882812 L 25.75 11.957031 C 26.851562 26.578125 32.546875 41.371094 36.679688 55.460938 L 23.019531 27.414062 C 24.085938 26.082031 27.25 24.28125 25.351562 22.480469 Z M 32.046875 28.210938 C 30.914062 24.113281 29.980469 20.082031 29.550781 15.820312 C 30.980469 17.117188 32.613281 18.550781 33.945312 19.484375 L 32.914062 31.34375 C 32.613281 30.3125 32.3125 29.246094 32.046875 28.246094 Z M 38.945312 51.464844 C 38.011719 48.464844 36.746094 44.402344 35.480469 40.136719 L 37.144531 21.117188 C 38.308594 21.382812 39.542969 21.382812 40.742188 21.117188 L 42.40625 40.136719 C 41.140625 44.402344 39.875 48.464844 38.910156 51.5 Z M 48.238281 16.984375 C 47.539062 22.148438 46.503906 25.914062 45.007812 31.308594 L 43.972656 19.417969 C 45.472656 18.417969 46.972656 17.183594 48.371094 15.953125 C 48.335938 16.285156 48.304688 16.652344 48.269531 16.984375 Z M 41.109375 17.320312 C 38.144531 19.050781 35.679688 16.785156 33.378906 14.785156 C 35.34375 11.488281 42.574219 11.390625 44.40625 14.921875 C 43.339844 15.785156 42.242188 16.621094 41.109375 17.285156 Z M 48.804688 10.65625 C 48.171875 11.390625 47.539062 12.089844 46.871094 12.722656 C 43.707031 7.691406 33.980469 7.890625 30.914062 12.523438 C 30.316406 11.957031 29.683594 11.289062 29.050781 10.589844 C 28.949219 8.625 28.949219 6.992188 28.984375 5.890625 L 48.902344 5.890625 C 48.902344 6.992188 48.902344 8.625 48.835938 10.621094 Z M 9.261719 97.605469 L 3.199219 97.605469 L 3.199219 27.347656 C 3.199219 25.613281 3.597656 23.847656 4.332031 22.414062 C 6.363281 24.914062 7.527344 28.3125 8.496094 31.410156 C 11.359375 41.40625 11.992188 51.832031 12.058594 62.226562 C 12.058594 62.226562 12.058594 94.773438 12.058594 94.773438 C 12.058594 96.304688 10.792969 97.570312 9.261719 97.570312 Z M 19.222656 97.605469 L 15.390625 97.605469 L 15.390625 77.015625 L 24.953125 77.015625 C 25.882812 77.015625 26.617188 76.285156 26.617188 75.351562 C 26.617188 74.417969 25.882812 73.683594 24.953125 73.683594 L 15.390625 73.683594 C 15.390625 62.890625 15.589844 50.898438 13.824219 40.304688 C 12.59375 33.441406 11.226562 26.246094 7.0625 20.550781 C 10.792969 18.585938 18.089844 16.085938 21.488281 13.320312 L 18.65625 19.683594 C 18.355469 20.351562 18.523438 21.148438 19.121094 21.648438 L 21.820312 23.914062 C 21.054688 24.914062 18.65625 26.3125 19.523438 27.847656 C 19.523438 27.847656 37.277344 64.222656 37.277344 64.222656 C 37.246094 64.289062 37.277344 79.613281 37.277344 79.679688 C 37.210938 89.574219 29.148438 97.636719 19.222656 97.636719 Z M 40.609375 79.648438 C 40.609375 79.648438 40.609375 64.222656 40.609375 64.222656 C 40.609375 64.222656 58.363281 27.8125 58.363281 27.8125 C 59.230469 26.3125 56.800781 24.847656 56.066406 23.882812 C 57.300781 22.648438 60.0625 21.382812 59.230469 19.652344 C 59.230469 19.652344 56.398438 13.320312 56.398438 13.320312 C 59.796875 16.054688 67.09375 18.585938 70.824219 20.550781 C 66.660156 26.246094 65.292969 33.441406 64.0625 40.304688 C 62.296875 50.867188 62.460938 62.890625 62.496094 73.683594 L 52.933594 73.683594 C 52.003906 73.683594 51.269531 74.417969 51.269531 75.351562 C 51.269531 76.285156 52.003906 77.015625 52.933594 77.015625 L 62.496094 77.015625 L 62.496094 97.605469 C 50.96875 98.769531 40.875 91.675781 40.609375 79.648438 Z M 127.523438 115.726562 L 71.324219 115.726562 C 63.960938 115.726562 53.800781 107.566406 50.601562 104.800781 L 53.367188 100.234375 C 56.332031 101.136719 61.03125 100.902344 64.160156 100.933594 C 64.761719 100.933594 65.292969 100.601562 65.59375 100.101562 C 67.328125 101.402344 71.558594 100.835938 73.589844 100.933594 L 72.390625 104.5 C 71.722656 106.566406 74.820312 107.632812 75.554688 105.566406 C 75.554688 105.566406 77.1875 100.703125 77.1875 100.703125 C 78.152344 100.269531 78.085938 99.003906 78.054688 98.105469 C 78.054688 98.105469 93.84375 50.699219 93.84375 50.699219 C 94.144531 49.832031 93.675781 48.867188 92.777344 48.601562 C 91.910156 48.332031 90.980469 48.765625 90.679688 49.667969 L 78.054688 87.578125 L 78.054688 58.792969 C 85.148438 45.203125 93.34375 36.308594 85.515625 26.378906 C 84.515625 24.914062 83.382812 23.25 82.285156 21.050781 C 80.585938 17.917969 80.851562 14.820312 85.214844 14.585938 C 87.179688 14.453125 89.347656 14.921875 91.078125 15.820312 C 96.375 18.652344 98.042969 21.082031 98.042969 21.117188 C 98.339844 21.582031 98.875 21.882812 99.441406 21.882812 C 99.941406 21.882812 100.539062 21.617188 100.839844 21.148438 C 100.839844 21.148438 102.570312 18.683594 107.835938 15.820312 C 110.367188 14.386719 115.597656 13.6875 117.328125 16.253906 C 118.097656 17.585938 117.394531 19.585938 116.664062 21.015625 C 112.332031 29.410156 106.9375 31.378906 112.597656 43.402344 C 117.394531 54.097656 143.449219 96.871094 148.277344 104.800781 C 145.078125 107.566406 134.953125 115.726562 127.589844 115.726562 Z M 108.234375 49.632812 L 126.523438 104.5 C 126.824219 105.367188 126.359375 106.300781 125.457031 106.597656 C 124.625 106.898438 123.625 106.433594 123.359375 105.53125 L 105.070312 50.664062 C 104.769531 49.800781 105.238281 48.832031 106.136719 48.566406 C 107.003906 48.300781 107.933594 48.734375 108.234375 49.632812 Z M 108.234375 49.632812 " fill-opacity="1" fill-rule="nonzero"/></g><g fill="#ffe5b7" fill-opacity="1"><g transform="translate(175.198011, 52.271112)"><g><path d="M 0.71875 -23.734375 L 0.71875 -23.96875 L 7.1875 -23.96875 L 7.1875 -23.734375 C 6.5 -23.734375 6 -23.523438 5.6875 -23.109375 C 5.375 -22.691406 5.175781 -22.015625 5.09375 -21.078125 C 5.019531 -20.140625 4.984375 -18.882812 4.984375 -17.3125 L 4.984375 -6.65625 C 4.984375 -5.09375 5.019531 -3.835938 5.09375 -2.890625 C 5.175781 -1.953125 5.375 -1.273438 5.6875 -0.859375 C 6 -0.441406 6.5 -0.234375 7.1875 -0.234375 L 7.1875 0 L 0.71875 0 L 0.71875 -0.234375 C 1.40625 -0.234375 1.90625 -0.441406 2.21875 -0.859375 C 2.53125 -1.273438 2.722656 -1.953125 2.796875 -2.890625 C 2.878906 -3.835938 2.921875 -5.09375 2.921875 -6.65625 L 2.921875 -17.3125 C 2.921875 -18.882812 2.878906 -20.140625 2.796875 -21.078125 C 2.722656 -22.015625 2.53125 -22.691406 2.21875 -23.109375 C 1.90625 -23.523438 1.40625 -23.734375 0.71875 -23.734375 Z M 0.71875 -23.734375 "/></g></g></g><g fill="#ffe5b7" fill-opacity="1"><g transform="translate(183.109386, 52.271112)"><g><path d="M 0.71875 -0.234375 C 1.40625 -0.234375 1.90625 -0.441406 2.21875 -0.859375 C 2.53125 -1.273438 2.722656 -1.953125 2.796875 -2.890625 C 2.878906 -3.835938 2.921875 -5.09375 2.921875 -6.65625 L 2.921875 -10.3125 C 2.921875 -11.882812 2.878906 -13.140625 2.796875 -14.078125 C 2.722656 -15.015625 2.53125 -15.691406 2.21875 -16.109375 C 1.90625 -16.523438 1.40625 -16.734375 0.71875 -16.734375 L 0.71875 -16.96875 L 3.453125 -16.96875 C 4.109375 -16.96875 4.835938 -17.003906 5.640625 -17.078125 C 6.453125 -17.160156 7.234375 -17.242188 7.984375 -17.328125 C 8.734375 -17.410156 9.332031 -17.453125 9.78125 -17.453125 C 10.207031 -17.453125 10.695312 -17.421875 11.25 -17.359375 C 11.800781 -17.304688 12.363281 -17.1875 12.9375 -17 C 13.519531 -16.820312 14.050781 -16.539062 14.53125 -16.15625 C 15.019531 -15.769531 15.414062 -15.25 15.71875 -14.59375 C 16.019531 -13.9375 16.171875 -13.109375 16.171875 -12.109375 L 16.171875 -6.65625 C 16.171875 -5.09375 16.210938 -3.835938 16.296875 -2.890625 C 16.378906 -1.953125 16.578125 -1.273438 16.890625 -0.859375 C 17.203125 -0.441406 17.703125 -0.234375 18.390625 -0.234375 L 18.390625 0 L 11.90625 0 L 11.90625 -0.234375 C 12.59375 -0.234375 13.09375 -0.441406 13.40625 -0.859375 C 13.71875 -1.273438 13.914062 -1.953125 14 -2.890625 C 14.082031 -3.835938 14.125 -5.09375 14.125 -6.65625 C 14.125 -6.800781 14.125 -7.0625 14.125 -7.4375 C 14.125 -7.8125 14.125 -8.234375 14.125 -8.703125 C 14.125 -9.179688 14.117188 -9.640625 14.109375 -10.078125 C 14.097656 -10.515625 14.09375 -10.875 14.09375 -11.15625 C 14.09375 -11.445312 14.09375 -11.59375 14.09375 -11.59375 C 14.09375 -12.664062 13.957031 -13.546875 13.6875 -14.234375 C 13.425781 -14.921875 13.082031 -15.457031 12.65625 -15.84375 C 12.238281 -16.238281 11.785156 -16.53125 11.296875 -16.71875 C 10.804688 -16.90625 10.332031 -17.015625 9.875 -17.046875 C 9.414062 -17.085938 9.023438 -17.109375 8.703125 -17.109375 C 8.097656 -17.109375 7.46875 -17.046875 6.8125 -16.921875 C 6.164062 -16.796875 5.554688 -16.628906 4.984375 -16.421875 L 4.984375 -6.65625 C 4.984375 -5.09375 5.019531 -3.835938 5.09375 -2.890625 C 5.175781 -1.953125 5.375 -1.273438 5.6875 -0.859375 C 6 -0.441406 6.5 -0.234375 7.1875 -0.234375 L 7.1875 0 L 0.71875 0 Z M 0.71875 -0.234375 "/></g></g></g><g fill="#ffe5b7" fill-opacity="1"><g transform="translate(201.976804, 52.271112)"><g><path d="M 9.65625 0.484375 C 8.363281 0.484375 7.207031 0.253906 6.1875 -0.203125 C 5.175781 -0.671875 4.316406 -1.316406 3.609375 -2.140625 C 2.910156 -2.960938 2.375 -3.914062 2 -5 C 1.625 -6.09375 1.4375 -7.253906 1.4375 -8.484375 C 1.4375 -9.710938 1.625 -10.867188 2 -11.953125 C 2.375 -13.046875 2.910156 -14.003906 3.609375 -14.828125 C 4.316406 -15.648438 5.175781 -16.289062 6.1875 -16.75 C 7.207031 -17.21875 8.363281 -17.453125 9.65625 -17.453125 C 10.914062 -17.453125 11.972656 -17.332031 12.828125 -17.09375 C 13.691406 -16.851562 14.5 -16.492188 15.25 -16.015625 L 15.25 -17.3125 C 15.25 -18.882812 15.207031 -20.140625 15.125 -21.078125 C 15.039062 -22.015625 14.84375 -22.691406 14.53125 -23.109375 C 14.21875 -23.523438 13.71875 -23.734375 13.03125 -23.734375 L 13.03125 -23.96875 L 17.3125 -23.96875 L 17.3125 -6.65625 C 17.3125 -5.09375 17.347656 -3.835938 17.421875 -2.890625 C 17.503906 -1.953125 17.703125 -1.273438 18.015625 -0.859375 C 18.328125 -0.441406 18.828125 -0.234375 19.515625 -0.234375 L 19.515625 0 L 15.25 0 L 15.25 -1.890625 C 14.664062 -1.203125 13.878906 -0.632812 12.890625 -0.1875 C 11.898438 0.257812 10.820312 0.484375 9.65625 0.484375 Z M 9.65625 -17.15625 C 8.425781 -17.15625 7.34375 -16.800781 6.40625 -16.09375 C 5.476562 -15.382812 4.753906 -14.378906 4.234375 -13.078125 C 3.722656 -11.773438 3.46875 -10.242188 3.46875 -8.484375 C 3.46875 -6.722656 3.722656 -5.191406 4.234375 -3.890625 C 4.753906 -2.585938 5.476562 -1.582031 6.40625 -0.875 C 7.34375 -0.164062 8.425781 0.1875 9.65625 0.1875 C 10.3125 0.1875 10.96875 0.078125 11.625 -0.140625 C 12.28125 -0.367188 12.878906 -0.6875 13.421875 -1.09375 C 13.960938 -1.5 14.398438 -1.972656 14.734375 -2.515625 C 15.078125 -3.054688 15.25 -3.648438 15.25 -4.296875 L 15.25 -14.125 C 15.007812 -14.488281 14.648438 -14.910156 14.171875 -15.390625 C 13.703125 -15.867188 13.097656 -16.28125 12.359375 -16.625 C 11.628906 -16.976562 10.726562 -17.15625 9.65625 -17.15625 Z M 9.65625 -17.15625 "/></g></g></g><g fill="#ffe5b7" fill-opacity="1"><g transform="translate(221.970988, 52.271112)"><g><path d="M 7.1875 0 L 0.71875 0 L 0.71875 -0.234375 C 1.40625 -0.234375 1.90625 -0.441406 2.21875 -0.859375 C 2.53125 -1.273438 2.722656 -1.953125 2.796875 -2.890625 C 2.878906 -3.835938 2.921875 -5.09375 2.921875 -6.65625 L 2.921875 -10.3125 C 2.921875 -11.882812 2.878906 -13.140625 2.796875 -14.078125 C 2.722656 -15.015625 2.53125 -15.691406 2.21875 -16.109375 C 1.90625 -16.523438 1.40625 -16.734375 0.71875 -16.734375 L 0.71875 -16.96875 L 4.984375 -16.96875 L 4.984375 -6.65625 C 4.984375 -5.09375 5.019531 -3.835938 5.09375 -2.890625 C 5.175781 -1.953125 5.375 -1.273438 5.6875 -0.859375 C 6 -0.441406 6.5 -0.234375 7.1875 -0.234375 Z M 2.234375 -20.109375 C 2.234375 -20.554688 2.382812 -20.9375 2.6875 -21.25 C 3 -21.5625 3.378906 -21.71875 3.828125 -21.71875 C 4.273438 -21.71875 4.65625 -21.5625 4.96875 -21.25 C 5.28125 -20.9375 5.4375 -20.554688 5.4375 -20.109375 C 5.4375 -19.660156 5.28125 -19.28125 4.96875 -18.96875 C 4.65625 -18.65625 4.273438 -18.5 3.828125 -18.5 C 3.378906 -18.5 3 -18.65625 2.6875 -18.96875 C 2.382812 -19.28125 2.234375 -19.660156 2.234375 -20.109375 Z M 2.234375 -20.109375 "/></g></g></g><g fill="#ffe5b7" fill-opacity="1"><g transform="translate(229.642619, 52.271112)"><g><path d="M 9.65625 0.484375 C 8.363281 0.484375 7.207031 0.253906 6.1875 -0.203125 C 5.175781 -0.671875 4.316406 -1.316406 3.609375 -2.140625 C 2.910156 -2.960938 2.375 -3.914062 2 -5 C 1.625 -6.09375 1.4375 -7.253906 1.4375 -8.484375 C 1.4375 -9.710938 1.625 -10.867188 2 -11.953125 C 2.375 -13.046875 2.910156 -14.003906 3.609375 -14.828125 C 4.316406 -15.648438 5.175781 -16.289062 6.1875 -16.75 C 7.207031 -17.21875 8.363281 -17.453125 9.65625 -17.453125 C 10.664062 -17.453125 11.582031 -17.367188 12.40625 -17.203125 C 13.226562 -17.035156 13.925781 -16.835938 14.5 -16.609375 C 15.070312 -16.390625 15.515625 -16.191406 15.828125 -16.015625 C 16.140625 -15.847656 16.296875 -15.765625 16.296875 -15.765625 L 16.296875 -12.9375 L 16.203125 -12.9375 C 15.773438 -13.820312 15.203125 -14.578125 14.484375 -15.203125 C 13.765625 -15.835938 12.984375 -16.320312 12.140625 -16.65625 C 11.296875 -16.988281 10.453125 -17.15625 9.609375 -17.15625 C 8.640625 -17.15625 7.800781 -16.96875 7.09375 -16.59375 C 6.394531 -16.21875 5.8125 -15.71875 5.34375 -15.09375 C 4.882812 -14.476562 4.515625 -13.789062 4.234375 -13.03125 C 3.953125 -12.28125 3.753906 -11.515625 3.640625 -10.734375 C 3.523438 -9.953125 3.476562 -9.226562 3.5 -8.5625 C 3.507812 -7.4375 3.675781 -6.378906 4 -5.390625 C 4.320312 -4.398438 4.78125 -3.523438 5.375 -2.765625 C 5.976562 -2.003906 6.710938 -1.40625 7.578125 -0.96875 C 8.441406 -0.539062 9.421875 -0.328125 10.515625 -0.328125 C 10.992188 -0.328125 11.53125 -0.398438 12.125 -0.546875 C 12.71875 -0.691406 13.3125 -0.921875 13.90625 -1.234375 C 14.507812 -1.554688 15.0625 -1.984375 15.5625 -2.515625 C 16.070312 -3.046875 16.46875 -3.691406 16.75 -4.453125 L 17.09375 -4.3125 C 16.46875 -2.894531 15.519531 -1.738281 14.25 -0.84375 C 12.976562 0.0390625 11.445312 0.484375 9.65625 0.484375 Z M 9.65625 0.484375 "/></g></g></g><g fill="#ffe5b7" fill-opacity="1"><g transform="translate(247.215455, 52.271112)"><g><path d="M 1.4375 -4.84375 C 1.4375 -6.039062 1.65625 -7.035156 2.09375 -7.828125 C 2.53125 -8.617188 3.109375 -9.257812 3.828125 -9.75 C 4.546875 -10.25 5.335938 -10.644531 6.203125 -10.9375 C 7.066406 -11.238281 7.929688 -11.488281 8.796875 -11.6875 C 9.660156 -11.882812 10.453125 -12.085938 11.171875 -12.296875 C 11.890625 -12.515625 12.46875 -12.789062 12.90625 -13.125 C 13.34375 -13.46875 13.5625 -13.921875 13.5625 -14.484375 C 13.5625 -15.128906 13.34375 -15.648438 12.90625 -16.046875 C 12.476562 -16.453125 11.945312 -16.742188 11.3125 -16.921875 C 10.675781 -17.109375 10.03125 -17.203125 9.375 -17.203125 C 8.625 -17.203125 7.90625 -17.109375 7.21875 -16.921875 C 6.53125 -16.742188 5.96875 -16.453125 5.53125 -16.046875 C 5.101562 -15.640625 4.890625 -15.097656 4.890625 -14.421875 C 4.890625 -13.984375 5.019531 -13.660156 5.28125 -13.453125 C 5.550781 -13.253906 5.738281 -13.210938 5.84375 -13.328125 C 5.976562 -12.972656 5.890625 -12.648438 5.578125 -12.359375 C 5.265625 -12.078125 4.90625 -11.9375 4.5 -11.9375 C 3.988281 -11.9375 3.570312 -12.128906 3.25 -12.515625 C 2.9375 -12.898438 2.78125 -13.347656 2.78125 -13.859375 C 2.78125 -14.648438 3.066406 -15.3125 3.640625 -15.84375 C 4.210938 -16.375 5 -16.773438 6 -17.046875 C 7 -17.316406 8.125 -17.453125 9.375 -17.453125 C 10.039062 -17.453125 10.738281 -17.382812 11.46875 -17.25 C 12.195312 -17.113281 12.867188 -16.910156 13.484375 -16.640625 C 14.109375 -16.378906 14.617188 -16.0625 15.015625 -15.6875 C 15.410156 -15.320312 15.609375 -14.898438 15.609375 -14.421875 C 15.609375 -13.941406 15.4375 -13.554688 15.09375 -13.265625 C 14.757812 -12.984375 14.304688 -12.757812 13.734375 -12.59375 C 13.160156 -12.425781 12.515625 -12.269531 11.796875 -12.125 C 11.078125 -11.976562 10.335938 -11.8125 9.578125 -11.625 C 8.816406 -11.445312 8.078125 -11.195312 7.359375 -10.875 C 6.640625 -10.5625 5.988281 -10.148438 5.40625 -9.640625 C 4.832031 -9.128906 4.378906 -8.46875 4.046875 -7.65625 C 3.710938 -6.851562 3.546875 -5.867188 3.546875 -4.703125 C 3.546875 -3.867188 3.707031 -3.117188 4.03125 -2.453125 C 4.363281 -1.796875 4.820312 -1.273438 5.40625 -0.890625 C 6 -0.503906 6.691406 -0.3125 7.484375 -0.3125 C 8.140625 -0.3125 8.804688 -0.484375 9.484375 -0.828125 C 10.160156 -1.179688 10.789062 -1.742188 11.375 -2.515625 C 11.96875 -3.285156 12.441406 -4.28125 12.796875 -5.5 C 13.160156 -6.71875 13.34375 -8.203125 13.34375 -9.953125 C 13.34375 -10.222656 13.316406 -10.472656 13.265625 -10.703125 C 13.222656 -10.929688 13.113281 -11.070312 12.9375 -11.125 C 12.9375 -11.195312 12.992188 -11.269531 13.109375 -11.34375 C 13.234375 -11.414062 13.394531 -11.453125 13.59375 -11.453125 C 14.1875 -11.453125 14.617188 -11.269531 14.890625 -10.90625 C 15.160156 -10.550781 15.335938 -10.085938 15.421875 -9.515625 C 15.515625 -8.953125 15.5625 -8.351562 15.5625 -7.71875 C 15.5625 -7.1875 15.5625 -6.738281 15.5625 -6.375 C 15.5625 -6.019531 15.5625 -5.675781 15.5625 -5.34375 C 15.570312 -5.019531 15.578125 -4.65625 15.578125 -4.25 C 15.578125 -3.84375 15.578125 -3.320312 15.578125 -2.6875 C 15.578125 -2.007812 15.6875 -1.492188 15.90625 -1.140625 C 16.125 -0.796875 16.375 -0.554688 16.65625 -0.421875 C 16.945312 -0.296875 17.195312 -0.234375 17.40625 -0.234375 L 17.40625 0 L 15.703125 0 C 15.054688 0 14.515625 -0.269531 14.078125 -0.8125 C 13.640625 -1.351562 13.421875 -2.070312 13.421875 -2.96875 L 13.421875 -7.078125 C 13.210938 -6.046875 12.941406 -5.070312 12.609375 -4.15625 C 12.273438 -3.25 11.851562 -2.441406 11.34375 -1.734375 C 10.84375 -1.035156 10.21875 -0.488281 9.46875 -0.09375 C 8.726562 0.289062 7.832031 0.484375 6.78125 0.484375 C 5.757812 0.484375 4.84375 0.253906 4.03125 -0.203125 C 3.226562 -0.660156 2.59375 -1.289062 2.125 -2.09375 C 1.664062 -2.90625 1.4375 -3.820312 1.4375 -4.84375 Z M 1.4375 -4.84375 "/></g></g></g><g fill="#ffe5b7" fill-opacity="1"><g transform="translate(265.099949, 52.271112)"><g><path d="M 7.1875 0 L 0.71875 0 L 0.71875 -0.234375 C 1.40625 -0.234375 1.90625 -0.441406 2.21875 -0.859375 C 2.53125 -1.273438 2.722656 -1.953125 2.796875 -2.890625 C 2.878906 -3.835938 2.921875 -5.09375 2.921875 -6.65625 L 2.921875 -10.3125 C 2.921875 -11.882812 2.878906 -13.140625 2.796875 -14.078125 C 2.722656 -15.015625 2.53125 -15.691406 2.21875 -16.109375 C 1.90625 -16.523438 1.40625 -16.734375 0.71875 -16.734375 L 0.71875 -16.96875 L 3.453125 -16.96875 C 4.109375 -16.96875 4.835938 -17.003906 5.640625 -17.078125 C 6.453125 -17.160156 7.234375 -17.242188 7.984375 -17.328125 C 8.734375 -17.410156 9.332031 -17.453125 9.78125 -17.453125 C 10.351562 -17.453125 11.039062 -17.398438 11.84375 -17.296875 C 12.65625 -17.191406 13.40625 -16.914062 14.09375 -16.46875 C 14.351562 -16.46875 14.78125 -16.550781 15.375 -16.71875 C 15.976562 -16.882812 16.742188 -17.046875 17.671875 -17.203125 C 18.609375 -17.367188 19.703125 -17.453125 20.953125 -17.453125 C 21.378906 -17.453125 21.867188 -17.421875 22.421875 -17.359375 C 22.972656 -17.304688 23.535156 -17.1875 24.109375 -17 C 24.679688 -16.820312 25.210938 -16.539062 25.703125 -16.15625 C 26.191406 -15.769531 26.585938 -15.25 26.890625 -14.59375 C 27.191406 -13.9375 27.34375 -13.109375 27.34375 -12.109375 L 27.34375 -6.65625 C 27.34375 -5.09375 27.382812 -3.835938 27.46875 -2.890625 C 27.550781 -1.953125 27.742188 -1.273438 28.046875 -0.859375 C 28.359375 -0.441406 28.859375 -0.234375 29.546875 -0.234375 L 29.546875 0 L 23.078125 0 L 23.078125 -0.234375 C 23.765625 -0.234375 24.265625 -0.441406 24.578125 -0.859375 C 24.890625 -1.273438 25.082031 -1.953125 25.15625 -2.890625 C 25.238281 -3.835938 25.28125 -5.09375 25.28125 -6.65625 C 25.28125 -6.800781 25.28125 -7.0625 25.28125 -7.4375 C 25.28125 -7.8125 25.28125 -8.234375 25.28125 -8.703125 C 25.28125 -9.179688 25.273438 -9.640625 25.265625 -10.078125 C 25.265625 -10.515625 25.265625 -10.875 25.265625 -11.15625 C 25.265625 -11.445312 25.265625 -11.59375 25.265625 -11.59375 C 25.265625 -12.664062 25.128906 -13.550781 24.859375 -14.25 C 24.597656 -14.945312 24.253906 -15.488281 23.828125 -15.875 C 23.410156 -16.269531 22.957031 -16.554688 22.46875 -16.734375 C 21.976562 -16.910156 21.5 -17.019531 21.03125 -17.0625 C 20.570312 -17.113281 20.1875 -17.140625 19.875 -17.140625 C 18.988281 -17.140625 18.117188 -17.035156 17.265625 -16.828125 C 16.410156 -16.628906 15.609375 -16.3125 14.859375 -15.875 C 15.253906 -15.46875 15.570312 -14.960938 15.8125 -14.359375 C 16.050781 -13.753906 16.171875 -13.003906 16.171875 -12.109375 L 16.171875 -6.65625 C 16.171875 -5.09375 16.210938 -3.835938 16.296875 -2.890625 C 16.378906 -1.953125 16.578125 -1.273438 16.890625 -0.859375 C 17.203125 -0.441406 17.703125 -0.234375 18.390625 -0.234375 L 18.390625 0 L 11.90625 0 L 11.90625 -0.234375 C 12.59375 -0.234375 13.09375 -0.441406 13.40625 -0.859375 C 13.71875 -1.273438 13.914062 -1.953125 14 -2.890625 C 14.082031 -3.835938 14.125 -5.09375 14.125 -6.65625 C 14.125 -6.800781 14.125 -7.0625 14.125 -7.4375 C 14.125 -7.8125 14.125 -8.234375 14.125 -8.703125 C 14.125 -9.179688 14.117188 -9.640625 14.109375 -10.078125 C 14.097656 -10.515625 14.09375 -10.875 14.09375 -11.15625 C 14.09375 -11.445312 14.09375 -11.59375 14.09375 -11.59375 C 14.09375 -12.664062 13.957031 -13.546875 13.6875 -14.234375 C 13.425781 -14.921875 13.082031 -15.457031 12.65625 -15.84375 C 12.238281 -16.238281 11.785156 -16.53125 11.296875 -16.71875 C 10.804688 -16.90625 10.332031 -17.015625 9.875 -17.046875 C 9.414062 -17.085938 9.023438 -17.109375 8.703125 -17.109375 C 8.097656 -17.109375 7.46875 -17.046875 6.8125 -16.921875 C 6.164062 -16.796875 5.554688 -16.628906 4.984375 -16.421875 L 4.984375 -6.65625 C 4.984375 -5.09375 5.019531 -3.835938 5.09375 -2.890625 C 5.175781 -1.953125 5.375 -1.273438 5.6875 -0.859375 C 6 -0.441406 6.5 -0.234375 7.1875 -0.234375 Z M 7.1875 0 "/></g></g></g><g fill="#ffe5b7" fill-opacity="1"><g transform="translate(295.139182, 52.271112)"><g><path d="M 9.65625 0.484375 C 8.363281 0.484375 7.207031 0.253906 6.1875 -0.203125 C 5.175781 -0.671875 4.316406 -1.316406 3.609375 -2.140625 C 2.910156 -2.960938 2.375 -3.914062 2 -5 C 1.625 -6.09375 1.4375 -7.253906 1.4375 -8.484375 C 1.4375 -9.710938 1.625 -10.867188 2 -11.953125 C 2.375 -13.046875 2.910156 -14.003906 3.609375 -14.828125 C 4.316406 -15.648438 5.175781 -16.289062 6.1875 -16.75 C 7.207031 -17.21875 8.363281 -17.453125 9.65625 -17.453125 C 10.945312 -17.453125 12.097656 -17.21875 13.109375 -16.75 C 14.128906 -16.289062 15 -15.648438 15.71875 -14.828125 C 16.4375 -14.003906 16.984375 -13.046875 17.359375 -11.953125 C 17.734375 -10.867188 17.921875 -9.710938 17.921875 -8.484375 C 17.921875 -7.253906 17.734375 -6.09375 17.359375 -5 C 16.984375 -3.914062 16.4375 -2.960938 15.71875 -2.140625 C 15 -1.316406 14.128906 -0.671875 13.109375 -0.203125 C 12.097656 0.253906 10.945312 0.484375 9.65625 0.484375 Z M 3.46875 -8.484375 C 3.46875 -6.722656 3.722656 -5.191406 4.234375 -3.890625 C 4.753906 -2.585938 5.476562 -1.582031 6.40625 -0.875 C 7.34375 -0.164062 8.425781 0.1875 9.65625 0.1875 C 10.90625 0.1875 11.992188 -0.164062 12.921875 -0.875 C 13.859375 -1.582031 14.585938 -2.585938 15.109375 -3.890625 C 15.628906 -5.191406 15.890625 -6.722656 15.890625 -8.484375 C 15.890625 -10.242188 15.628906 -11.773438 15.109375 -13.078125 C 14.585938 -14.378906 13.859375 -15.382812 12.921875 -16.09375 C 11.992188 -16.800781 10.90625 -17.15625 9.65625 -17.15625 C 8.425781 -17.15625 7.34375 -16.800781 6.40625 -16.09375 C 5.476562 -15.382812 4.753906 -14.378906 4.234375 -13.078125 C 3.722656 -11.773438 3.46875 -10.242188 3.46875 -8.484375 Z M 3.46875 -8.484375 "/></g></g></g><g fill="#ffe5b7" fill-opacity="1"><g transform="translate(314.510047, 52.271112)"><g><path d="M 1.4375 -0.984375 L 1.4375 -3.90625 L 1.671875 -3.90625 C 1.671875 -3.613281 1.796875 -3.234375 2.046875 -2.765625 C 2.296875 -2.304688 2.664062 -1.84375 3.15625 -1.375 C 3.65625 -0.90625 4.265625 -0.515625 4.984375 -0.203125 C 5.703125 0.109375 6.535156 0.253906 7.484375 0.234375 C 8.359375 0.222656 9.191406 0.0507812 9.984375 -0.28125 C 10.773438 -0.625 11.421875 -1.113281 11.921875 -1.75 C 12.421875 -2.382812 12.671875 -3.164062 12.671875 -4.09375 C 12.671875 -4.8125 12.472656 -5.394531 12.078125 -5.84375 C 11.691406 -6.289062 11.175781 -6.65625 10.53125 -6.9375 C 9.882812 -7.226562 9.171875 -7.484375 8.390625 -7.703125 C 7.609375 -7.929688 6.828125 -8.175781 6.046875 -8.4375 C 5.273438 -8.695312 4.566406 -9.015625 3.921875 -9.390625 C 3.273438 -9.773438 2.753906 -10.28125 2.359375 -10.90625 C 1.972656 -11.53125 1.78125 -12.320312 1.78125 -13.28125 C 1.78125 -14.03125 2 -14.71875 2.4375 -15.34375 C 2.875 -15.976562 3.53125 -16.488281 4.40625 -16.875 C 5.289062 -17.257812 6.378906 -17.453125 7.671875 -17.453125 C 8.679688 -17.453125 9.5625 -17.367188 10.3125 -17.203125 C 11.0625 -17.035156 11.675781 -16.835938 12.15625 -16.609375 C 12.644531 -16.390625 13.007812 -16.191406 13.25 -16.015625 C 13.488281 -15.847656 13.609375 -15.765625 13.609375 -15.765625 L 13.609375 -12.9375 L 13.515625 -12.9375 C 13.054688 -14.3125 12.328125 -15.363281 11.328125 -16.09375 C 10.328125 -16.832031 9.1875 -17.203125 7.90625 -17.203125 C 6.90625 -17.203125 6.046875 -17.039062 5.328125 -16.71875 C 4.617188 -16.394531 4.078125 -15.96875 3.703125 -15.4375 C 3.335938 -14.90625 3.15625 -14.335938 3.15625 -13.734375 C 3.15625 -13.023438 3.363281 -12.441406 3.78125 -11.984375 C 4.195312 -11.535156 4.742188 -11.160156 5.421875 -10.859375 C 6.109375 -10.566406 6.859375 -10.300781 7.671875 -10.0625 C 8.484375 -9.820312 9.296875 -9.566406 10.109375 -9.296875 C 10.929688 -9.023438 11.679688 -8.6875 12.359375 -8.28125 C 13.035156 -7.882812 13.582031 -7.375 14 -6.75 C 14.414062 -6.132812 14.625 -5.351562 14.625 -4.40625 C 14.625 -3.53125 14.425781 -2.78125 14.03125 -2.15625 C 13.644531 -1.53125 13.113281 -1.023438 12.4375 -0.640625 C 11.769531 -0.265625 11.007812 0.015625 10.15625 0.203125 C 9.300781 0.390625 8.410156 0.484375 7.484375 0.484375 C 4.972656 0.484375 2.957031 -0.00390625 1.4375 -0.984375 Z M 1.4375 -0.984375 "/></g></g></g><g fill="#ffe5b7" fill-opacity="1"><g transform="translate(330.572528, 52.271112)"><g/></g></g><g fill="#ffe5b7" fill-opacity="1"><g transform="translate(338.963378, 52.271112)"><g><path d="M 9.65625 0.484375 C 8.363281 0.484375 7.207031 0.253906 6.1875 -0.203125 C 5.175781 -0.671875 4.316406 -1.316406 3.609375 -2.140625 C 2.910156 -2.960938 2.375 -3.914062 2 -5 C 1.625 -6.09375 1.4375 -7.253906 1.4375 -8.484375 C 1.4375 -9.710938 1.625 -10.867188 2 -11.953125 C 2.375 -13.046875 2.910156 -14.003906 3.609375 -14.828125 C 4.316406 -15.648438 5.175781 -16.289062 6.1875 -16.75 C 7.207031 -17.21875 8.363281 -17.453125 9.65625 -17.453125 C 10.945312 -17.453125 12.097656 -17.21875 13.109375 -16.75 C 14.128906 -16.289062 15 -15.648438 15.71875 -14.828125 C 16.4375 -14.003906 16.984375 -13.046875 17.359375 -11.953125 C 17.734375 -10.867188 17.921875 -9.710938 17.921875 -8.484375 C 17.921875 -7.253906 17.734375 -6.09375 17.359375 -5 C 16.984375 -3.914062 16.4375 -2.960938 15.71875 -2.140625 C 15 -1.316406 14.128906 -0.671875 13.109375 -0.203125 C 12.097656 0.253906 10.945312 0.484375 9.65625 0.484375 Z M 3.46875 -8.484375 C 3.46875 -6.722656 3.722656 -5.191406 4.234375 -3.890625 C 4.753906 -2.585938 5.476562 -1.582031 6.40625 -0.875 C 7.34375 -0.164062 8.425781 0.1875 9.65625 0.1875 C 10.90625 0.1875 11.992188 -0.164062 12.921875 -0.875 C 13.859375 -1.582031 14.585938 -2.585938 15.109375 -3.890625 C 15.628906 -5.191406 15.890625 -6.722656 15.890625 -8.484375 C 15.890625 -10.242188 15.628906 -11.773438 15.109375 -13.078125 C 14.585938 -14.378906 13.859375 -15.382812 12.921875 -16.09375 C 11.992188 -16.800781 10.90625 -17.15625 9.65625 -17.15625 C 8.425781 -17.15625 7.34375 -16.800781 6.40625 -16.09375 C 5.476562 -15.382812 4.753906 -14.378906 4.234375 -13.078125 C 3.722656 -11.773438 3.46875 -10.242188 3.46875 -8.484375 Z M 3.46875 -8.484375 "/></g></g></g><g fill="#ffe5b7" fill-opacity="1"><g transform="translate(358.334244, 52.271112)"><g/></g></g><g fill="#ffe5b7" fill-opacity="1"><g transform="translate(366.725094, 52.271112)"><g><path d="M 0.484375 -16.734375 L 0.484375 -16.96875 L 4.75 -16.96875 C 4.75 -16.875 4.75 -16.585938 4.75 -16.109375 C 4.75 -15.640625 4.75 -15.054688 4.75 -14.359375 C 4.75 -13.671875 4.75 -12.921875 4.75 -12.109375 C 4.757812 -11.304688 4.765625 -10.503906 4.765625 -9.703125 C 4.765625 -8.910156 4.765625 -8.1875 4.765625 -7.53125 C 4.765625 -6.875 4.765625 -6.347656 4.765625 -5.953125 C 4.765625 -5.566406 4.765625 -5.375 4.765625 -5.375 C 4.765625 -4.300781 4.894531 -3.421875 5.15625 -2.734375 C 5.425781 -2.046875 5.769531 -1.503906 6.1875 -1.109375 C 6.613281 -0.722656 7.070312 -0.4375 7.5625 -0.25 C 8.050781 -0.0625 8.523438 0.046875 8.984375 0.078125 C 9.453125 0.117188 9.84375 0.140625 10.15625 0.140625 C 10.769531 0.140625 11.398438 0.078125 12.046875 -0.046875 C 12.691406 -0.171875 13.300781 -0.335938 13.875 -0.546875 L 13.875 -10.3125 C 13.875 -11.882812 13.832031 -13.140625 13.75 -14.078125 C 13.675781 -15.015625 13.484375 -15.691406 13.171875 -16.109375 C 12.859375 -16.523438 12.359375 -16.734375 11.671875 -16.734375 L 11.671875 -16.96875 L 15.9375 -16.96875 L 15.9375 -6.65625 C 15.9375 -5.09375 15.972656 -3.835938 16.046875 -2.890625 C 16.128906 -1.953125 16.328125 -1.273438 16.640625 -0.859375 C 16.953125 -0.441406 17.453125 -0.234375 18.140625 -0.234375 L 18.140625 0 L 15.40625 0 C 14.75 0 14.019531 0.0351562 13.21875 0.109375 C 12.414062 0.191406 11.640625 0.273438 10.890625 0.359375 C 10.148438 0.441406 9.546875 0.484375 9.078125 0.484375 C 8.648438 0.484375 8.160156 0.453125 7.609375 0.390625 C 7.054688 0.335938 6.492188 0.21875 5.921875 0.03125 C 5.347656 -0.144531 4.816406 -0.425781 4.328125 -0.8125 C 3.835938 -1.195312 3.441406 -1.71875 3.140625 -2.375 C 2.835938 -3.03125 2.6875 -3.859375 2.6875 -4.859375 L 2.6875 -10.3125 C 2.6875 -11.882812 2.644531 -13.140625 2.5625 -14.078125 C 2.476562 -15.015625 2.28125 -15.691406 1.96875 -16.109375 C 1.664062 -16.523438 1.171875 -16.734375 0.484375 -16.734375 Z M 0.484375 -16.734375 "/></g></g></g><g fill="#ffe5b7" fill-opacity="1"><g transform="translate(385.352757, 52.271112)"><g><path d="M 1.4375 -0.984375 L 1.4375 -3.90625 L 1.671875 -3.90625 C 1.671875 -3.613281 1.796875 -3.234375 2.046875 -2.765625 C 2.296875 -2.304688 2.664062 -1.84375 3.15625 -1.375 C 3.65625 -0.90625 4.265625 -0.515625 4.984375 -0.203125 C 5.703125 0.109375 6.535156 0.253906 7.484375 0.234375 C 8.359375 0.222656 9.191406 0.0507812 9.984375 -0.28125 C 10.773438 -0.625 11.421875 -1.113281 11.921875 -1.75 C 12.421875 -2.382812 12.671875 -3.164062 12.671875 -4.09375 C 12.671875 -4.8125 12.472656 -5.394531 12.078125 -5.84375 C 11.691406 -6.289062 11.175781 -6.65625 10.53125 -6.9375 C 9.882812 -7.226562 9.171875 -7.484375 8.390625 -7.703125 C 7.609375 -7.929688 6.828125 -8.175781 6.046875 -8.4375 C 5.273438 -8.695312 4.566406 -9.015625 3.921875 -9.390625 C 3.273438 -9.773438 2.753906 -10.28125 2.359375 -10.90625 C 1.972656 -11.53125 1.78125 -12.320312 1.78125 -13.28125 C 1.78125 -14.03125 2 -14.71875 2.4375 -15.34375 C 2.875 -15.976562 3.53125 -16.488281 4.40625 -16.875 C 5.289062 -17.257812 6.378906 -17.453125 7.671875 -17.453125 C 8.679688 -17.453125 9.5625 -17.367188 10.3125 -17.203125 C 11.0625 -17.035156 11.675781 -16.835938 12.15625 -16.609375 C 12.644531 -16.390625 13.007812 -16.191406 13.25 -16.015625 C 13.488281 -15.847656 13.609375 -15.765625 13.609375 -15.765625 L 13.609375 -12.9375 L 13.515625 -12.9375 C 13.054688 -14.3125 12.328125 -15.363281 11.328125 -16.09375 C 10.328125 -16.832031 9.1875 -17.203125 7.90625 -17.203125 C 6.90625 -17.203125 6.046875 -17.039062 5.328125 -16.71875 C 4.617188 -16.394531 4.078125 -15.96875 3.703125 -15.4375 C 3.335938 -14.90625 3.15625 -14.335938 3.15625 -13.734375 C 3.15625 -13.023438 3.363281 -12.441406 3.78125 -11.984375 C 4.195312 -11.535156 4.742188 -11.160156 5.421875 -10.859375 C 6.109375 -10.566406 6.859375 -10.300781 7.671875 -10.0625 C 8.484375 -9.820312 9.296875 -9.566406 10.109375 -9.296875 C 10.929688 -9.023438 11.679688 -8.6875 12.359375 -8.28125 C 13.035156 -7.882812 13.582031 -7.375 14 -6.75 C 14.414062 -6.132812 14.625 -5.351562 14.625 -4.40625 C 14.625 -3.53125 14.425781 -2.78125 14.03125 -2.15625 C 13.644531 -1.53125 13.113281 -1.023438 12.4375 -0.640625 C 11.769531 -0.265625 11.007812 0.015625 10.15625 0.203125 C 9.300781 0.390625 8.410156 0.484375 7.484375 0.484375 C 4.972656 0.484375 2.957031 -0.00390625 1.4375 -0.984375 Z M 1.4375 -0.984375 "/></g></g></g><g fill="#ffe5b7" fill-opacity="1"><g transform="translate(401.415248, 52.271112)"><g><path d="M 9.65625 0.484375 C 8.363281 0.484375 7.207031 0.253906 6.1875 -0.203125 C 5.175781 -0.671875 4.316406 -1.316406 3.609375 -2.140625 C 2.910156 -2.960938 2.375 -3.914062 2 -5 C 1.625 -6.09375 1.4375 -7.253906 1.4375 -8.484375 C 1.4375 -9.710938 1.625 -10.867188 2 -11.953125 C 2.375 -13.046875 2.910156 -14.003906 3.609375 -14.828125 C 4.316406 -15.648438 5.175781 -16.289062 6.1875 -16.75 C 7.207031 -17.21875 8.363281 -17.453125 9.65625 -17.453125 C 10.945312 -17.453125 12.097656 -17.21875 13.109375 -16.75 C 14.128906 -16.289062 15 -15.648438 15.71875 -14.828125 C 16.4375 -14.003906 16.984375 -13.046875 17.359375 -11.953125 C 17.734375 -10.867188 17.921875 -9.710938 17.921875 -8.484375 C 17.921875 -7.253906 17.734375 -6.09375 17.359375 -5 C 16.984375 -3.914062 16.4375 -2.960938 15.71875 -2.140625 C 15 -1.316406 14.128906 -0.671875 13.109375 -0.203125 C 12.097656 0.253906 10.945312 0.484375 9.65625 0.484375 Z M 3.46875 -8.484375 C 3.46875 -6.722656 3.722656 -5.191406 4.234375 -3.890625 C 4.753906 -2.585938 5.476562 -1.582031 6.40625 -0.875 C 7.34375 -0.164062 8.425781 0.1875 9.65625 0.1875 C 10.90625 0.1875 11.992188 -0.164062 12.921875 -0.875 C 13.859375 -1.582031 14.585938 -2.585938 15.109375 -3.890625 C 15.628906 -5.191406 15.890625 -6.722656 15.890625 -8.484375 C 15.890625 -10.242188 15.628906 -11.773438 15.109375 -13.078125 C 14.585938 -14.378906 13.859375 -15.382812 12.921875 -16.09375 C 11.992188 -16.800781 10.90625 -17.15625 9.65625 -17.15625 C 8.425781 -17.15625 7.34375 -16.800781 6.40625 -16.09375 C 5.476562 -15.382812 4.753906 -14.378906 4.234375 -13.078125 C 3.722656 -11.773438 3.46875 -10.242188 3.46875 -8.484375 Z M 3.46875 -8.484375 "/></g></g></g><g fill="#ffe5b7" fill-opacity="1"><g transform="translate(420.788971, 52.271112)"><g/></g></g><g fill="#ffe5b7" fill-opacity="1"><g transform="translate(175.198011, 85.235084)"><g><path d="M 9.65625 0.484375 C 8.363281 0.484375 7.207031 0.253906 6.1875 -0.203125 C 5.175781 -0.671875 4.316406 -1.316406 3.609375 -2.140625 C 2.910156 -2.960938 2.375 -3.914062 2 -5 C 1.625 -6.09375 1.4375 -7.253906 1.4375 -8.484375 C 1.4375 -9.710938 1.625 -10.867188 2 -11.953125 C 2.375 -13.046875 2.910156 -14.003906 3.609375 -14.828125 C 4.316406 -15.648438 5.175781 -16.289062 6.1875 -16.75 C 7.207031 -17.21875 8.363281 -17.453125 9.65625 -17.453125 C 10.914062 -17.453125 11.972656 -17.332031 12.828125 -17.09375 C 13.691406 -16.851562 14.5 -16.492188 15.25 -16.015625 L 15.25 -17.3125 C 15.25 -18.882812 15.207031 -20.140625 15.125 -21.078125 C 15.039062 -22.015625 14.84375 -22.691406 14.53125 -23.109375 C 14.21875 -23.523438 13.71875 -23.734375 13.03125 -23.734375 L 13.03125 -23.96875 L 17.3125 -23.96875 L 17.3125 -6.65625 C 17.3125 -5.09375 17.347656 -3.835938 17.421875 -2.890625 C 17.503906 -1.953125 17.703125 -1.273438 18.015625 -0.859375 C 18.328125 -0.441406 18.828125 -0.234375 19.515625 -0.234375 L 19.515625 0 L 15.25 0 L 15.25 -1.890625 C 14.664062 -1.203125 13.878906 -0.632812 12.890625 -0.1875 C 11.898438 0.257812 10.820312 0.484375 9.65625 0.484375 Z M 9.65625 -17.15625 C 8.425781 -17.15625 7.34375 -16.800781 6.40625 -16.09375 C 5.476562 -15.382812 4.753906 -14.378906 4.234375 -13.078125 C 3.722656 -11.773438 3.46875 -10.242188 3.46875 -8.484375 C 3.46875 -6.722656 3.722656 -5.191406 4.234375 -3.890625 C 4.753906 -2.585938 5.476562 -1.582031 6.40625 -0.875 C 7.34375 -0.164062 8.425781 0.1875 9.65625 0.1875 C 10.3125 0.1875 10.96875 0.078125 11.625 -0.140625 C 12.28125 -0.367188 12.878906 -0.6875 13.421875 -1.09375 C 13.960938 -1.5 14.398438 -1.972656 14.734375 -2.515625 C 15.078125 -3.054688 15.25 -3.648438 15.25 -4.296875 L 15.25 -14.125 C 15.007812 -14.488281 14.648438 -14.910156 14.171875 -15.390625 C 13.703125 -15.867188 13.097656 -16.28125 12.359375 -16.625 C 11.628906 -16.976562 10.726562 -17.15625 9.65625 -17.15625 Z M 9.65625 -17.15625 "/></g></g></g><g fill="#ffe5b7" fill-opacity="1"><g transform="translate(195.192196, 85.235084)"><g><path d="M 9.65625 0.484375 C 8.363281 0.484375 7.207031 0.253906 6.1875 -0.203125 C 5.175781 -0.671875 4.316406 -1.316406 3.609375 -2.140625 C 2.910156 -2.960938 2.375 -3.914062 2 -5 C 1.625 -6.09375 1.4375 -7.253906 1.4375 -8.484375 C 1.4375 -9.710938 1.625 -10.867188 2 -11.953125 C 2.375 -13.046875 2.910156 -14.003906 3.609375 -14.828125 C 4.316406 -15.648438 5.175781 -16.289062 6.1875 -16.75 C 7.207031 -17.21875 8.363281 -17.453125 9.65625 -17.453125 C 10.945312 -17.453125 12.054688 -17.28125 12.984375 -16.9375 C 13.910156 -16.601562 14.671875 -16.164062 15.265625 -15.625 C 15.859375 -15.082031 16.296875 -14.488281 16.578125 -13.84375 C 16.859375 -13.207031 17 -12.585938 17 -11.984375 C 16.976562 -10.628906 16.59375 -9.566406 15.84375 -8.796875 C 15.09375 -8.023438 14.03125 -7.640625 12.65625 -7.640625 C 11.695312 -7.640625 10.878906 -7.75 10.203125 -7.96875 C 9.523438 -8.1875 8.925781 -8.429688 8.40625 -8.703125 C 7.882812 -8.984375 7.378906 -9.234375 6.890625 -9.453125 C 6.398438 -9.671875 5.859375 -9.78125 5.265625 -9.78125 C 4.984375 -9.78125 4.722656 -9.703125 4.484375 -9.546875 C 4.253906 -9.398438 4.125 -9.28125 4.09375 -9.1875 L 4 -9.203125 C 4 -9.703125 4.207031 -10.144531 4.625 -10.53125 C 5.050781 -10.925781 5.679688 -11.125 6.515625 -11.125 C 7.140625 -11.125 7.726562 -10.960938 8.28125 -10.640625 C 8.84375 -10.316406 9.378906 -9.941406 9.890625 -9.515625 C 10.410156 -9.097656 10.910156 -8.726562 11.390625 -8.40625 C 11.867188 -8.09375 12.347656 -7.9375 12.828125 -7.9375 C 13.410156 -7.9375 13.894531 -8.160156 14.28125 -8.609375 C 14.664062 -9.054688 14.929688 -9.625 15.078125 -10.3125 C 15.234375 -11.007812 15.25 -11.753906 15.125 -12.546875 C 15 -13.335938 14.71875 -14.078125 14.28125 -14.765625 C 13.851562 -15.460938 13.253906 -16.035156 12.484375 -16.484375 C 11.722656 -16.929688 10.765625 -17.15625 9.609375 -17.15625 C 8.640625 -17.15625 7.800781 -16.96875 7.09375 -16.59375 C 6.394531 -16.21875 5.8125 -15.71875 5.34375 -15.09375 C 4.882812 -14.476562 4.515625 -13.789062 4.234375 -13.03125 C 3.953125 -12.28125 3.753906 -11.515625 3.640625 -10.734375 C 3.523438 -9.953125 3.476562 -9.226562 3.5 -8.5625 C 3.507812 -7.4375 3.675781 -6.378906 4 -5.390625 C 4.320312 -4.398438 4.78125 -3.523438 5.375 -2.765625 C 5.976562 -2.003906 6.710938 -1.40625 7.578125 -0.96875 C 8.441406 -0.539062 9.421875 -0.328125 10.515625 -0.328125 C 10.992188 -0.328125 11.53125 -0.398438 12.125 -0.546875 C 12.71875 -0.691406 13.3125 -0.921875 13.90625 -1.234375 C 14.507812 -1.554688 15.0625 -1.984375 15.5625 -2.515625 C 16.070312 -3.046875 16.46875 -3.691406 16.75 -4.453125 L 17.09375 -4.3125 C 16.46875 -2.894531 15.519531 -1.738281 14.25 -0.84375 C 12.976562 0.0390625 11.445312 0.484375 9.65625 0.484375 Z M 9.65625 0.484375 "/></g></g></g><g fill="#ffe5b7" fill-opacity="1"><g transform="translate(213.723981, 85.235084)"><g/></g></g><g fill="#ffe5b7" fill-opacity="1"><g transform="translate(222.114831, 85.235084)"><g><path d="M 0.484375 -16.96875 C 1.273438 -16.96875 1.925781 -17.109375 2.4375 -17.390625 C 2.957031 -17.679688 3.351562 -18.054688 3.625 -18.515625 C 3.90625 -18.984375 4.109375 -19.484375 4.234375 -20.015625 C 4.367188 -20.554688 4.445312 -21.070312 4.46875 -21.5625 C 4.488281 -22.050781 4.5 -22.453125 4.5 -22.765625 L 4.75 -22.765625 L 4.75 -16.96875 L 6.5625 -16.96875 L 6.5625 -16.734375 L 4.75 -16.734375 L 4.75 -5.21875 C 4.75 -3.976562 4.75 -2.988281 4.75 -2.25 C 4.75 -1.519531 4.800781 -0.992188 4.90625 -0.671875 C 5.007812 -0.347656 5.210938 -0.1875 5.515625 -0.1875 C 5.765625 -0.1875 5.992188 -0.28125 6.203125 -0.46875 C 6.410156 -0.65625 6.578125 -0.84375 6.703125 -1.03125 C 6.835938 -1.21875 6.90625 -1.3125 6.90625 -1.3125 L 7.140625 -1.203125 C 6.835938 -0.691406 6.472656 -0.285156 6.046875 0.015625 C 5.628906 0.328125 5.113281 0.484375 4.5 0.484375 C 3.8125 0.484375 3.335938 0.234375 3.078125 -0.265625 C 2.816406 -0.773438 2.6875 -1.421875 2.6875 -2.203125 L 2.6875 -16.734375 L 0.484375 -16.734375 Z M 0.484375 -16.96875 "/></g></g></g><g fill="#ffe5b7" fill-opacity="1"><g transform="translate(229.738518, 85.235084)"><g><path d="M 7.1875 0 L 0.71875 0 L 0.71875 -0.234375 C 1.40625 -0.234375 1.90625 -0.441406 2.21875 -0.859375 C 2.53125 -1.273438 2.722656 -1.953125 2.796875 -2.890625 C 2.878906 -3.835938 2.921875 -5.09375 2.921875 -6.65625 L 2.921875 -10.3125 C 2.921875 -11.882812 2.878906 -13.140625 2.796875 -14.078125 C 2.722656 -15.015625 2.53125 -15.691406 2.21875 -16.109375 C 1.90625 -16.523438 1.40625 -16.734375 0.71875 -16.734375 L 0.71875 -16.96875 L 3.5 -16.96875 C 4.875 -16.96875 6.300781 -17.046875 7.78125 -17.203125 C 9.269531 -17.367188 10.679688 -17.453125 12.015625 -17.453125 C 13.078125 -17.453125 13.957031 -17.195312 14.65625 -16.6875 C 15.363281 -16.175781 15.71875 -15.457031 15.71875 -14.53125 C 15.71875 -13.882812 15.546875 -13.332031 15.203125 -12.875 C 14.859375 -12.425781 14.34375 -12.203125 13.65625 -12.203125 C 13.320312 -12.203125 13.019531 -12.300781 12.75 -12.5 C 12.476562 -12.695312 12.34375 -12.960938 12.34375 -13.296875 C 12.675781 -13.316406 12.972656 -13.5 13.234375 -13.84375 C 13.503906 -14.1875 13.640625 -14.601562 13.640625 -15.09375 C 13.640625 -15.65625 13.425781 -16.128906 13 -16.515625 C 12.582031 -16.910156 11.941406 -17.109375 11.078125 -17.109375 C 10.703125 -17.109375 10.238281 -17.09375 9.6875 -17.0625 C 9.144531 -17.03125 8.578125 -16.984375 7.984375 -16.921875 C 7.390625 -16.859375 6.820312 -16.785156 6.28125 -16.703125 C 5.75 -16.628906 5.316406 -16.535156 4.984375 -16.421875 L 4.984375 -6.65625 C 4.984375 -5.09375 5.019531 -3.835938 5.09375 -2.890625 C 5.175781 -1.953125 5.375 -1.273438 5.6875 -0.859375 C 6 -0.441406 6.5 -0.234375 7.1875 -0.234375 Z M 7.1875 0 "/></g></g></g><g fill="#ffe5b7" fill-opacity="1"><g transform="translate(245.944843, 85.235084)"><g><path d="M 1.4375 -4.84375 C 1.4375 -6.039062 1.65625 -7.035156 2.09375 -7.828125 C 2.53125 -8.617188 3.109375 -9.257812 3.828125 -9.75 C 4.546875 -10.25 5.335938 -10.644531 6.203125 -10.9375 C 7.066406 -11.238281 7.929688 -11.488281 8.796875 -11.6875 C 9.660156 -11.882812 10.453125 -12.085938 11.171875 -12.296875 C 11.890625 -12.515625 12.46875 -12.789062 12.90625 -13.125 C 13.34375 -13.46875 13.5625 -13.921875 13.5625 -14.484375 C 13.5625 -15.128906 13.34375 -15.648438 12.90625 -16.046875 C 12.476562 -16.453125 11.945312 -16.742188 11.3125 -16.921875 C 10.675781 -17.109375 10.03125 -17.203125 9.375 -17.203125 C 8.625 -17.203125 7.90625 -17.109375 7.21875 -16.921875 C 6.53125 -16.742188 5.96875 -16.453125 5.53125 -16.046875 C 5.101562 -15.640625 4.890625 -15.097656 4.890625 -14.421875 C 4.890625 -13.984375 5.019531 -13.660156 5.28125 -13.453125 C 5.550781 -13.253906 5.738281 -13.210938 5.84375 -13.328125 C 5.976562 -12.972656 5.890625 -12.648438 5.578125 -12.359375 C 5.265625 -12.078125 4.90625 -11.9375 4.5 -11.9375 C 3.988281 -11.9375 3.570312 -12.128906 3.25 -12.515625 C 2.9375 -12.898438 2.78125 -13.347656 2.78125 -13.859375 C 2.78125 -14.648438 3.066406 -15.3125 3.640625 -15.84375 C 4.210938 -16.375 5 -16.773438 6 -17.046875 C 7 -17.316406 8.125 -17.453125 9.375 -17.453125 C 10.039062 -17.453125 10.738281 -17.382812 11.46875 -17.25 C 12.195312 -17.113281 12.867188 -16.910156 13.484375 -16.640625 C 14.109375 -16.378906 14.617188 -16.0625 15.015625 -15.6875 C 15.410156 -15.320312 15.609375 -14.898438 15.609375 -14.421875 C 15.609375 -13.941406 15.4375 -13.554688 15.09375 -13.265625 C 14.757812 -12.984375 14.304688 -12.757812 13.734375 -12.59375 C 13.160156 -12.425781 12.515625 -12.269531 11.796875 -12.125 C 11.078125 -11.976562 10.335938 -11.8125 9.578125 -11.625 C 8.816406 -11.445312 8.078125 -11.195312 7.359375 -10.875 C 6.640625 -10.5625 5.988281 -10.148438 5.40625 -9.640625 C 4.832031 -9.128906 4.378906 -8.46875 4.046875 -7.65625 C 3.710938 -6.851562 3.546875 -5.867188 3.546875 -4.703125 C 3.546875 -3.867188 3.707031 -3.117188 4.03125 -2.453125 C 4.363281 -1.796875 4.820312 -1.273438 5.40625 -0.890625 C 6 -0.503906 6.691406 -0.3125 7.484375 -0.3125 C 8.140625 -0.3125 8.804688 -0.484375 9.484375 -0.828125 C 10.160156 -1.179688 10.789062 -1.742188 11.375 -2.515625 C 11.96875 -3.285156 12.441406 -4.28125 12.796875 -5.5 C 13.160156 -6.71875 13.34375 -8.203125 13.34375 -9.953125 C 13.34375 -10.222656 13.316406 -10.472656 13.265625 -10.703125 C 13.222656 -10.929688 13.113281 -11.070312 12.9375 -11.125 C 12.9375 -11.195312 12.992188 -11.269531 13.109375 -11.34375 C 13.234375 -11.414062 13.394531 -11.453125 13.59375 -11.453125 C 14.1875 -11.453125 14.617188 -11.269531 14.890625 -10.90625 C 15.160156 -10.550781 15.335938 -10.085938 15.421875 -9.515625 C 15.515625 -8.953125 15.5625 -8.351562 15.5625 -7.71875 C 15.5625 -7.1875 15.5625 -6.738281 15.5625 -6.375 C 15.5625 -6.019531 15.5625 -5.675781 15.5625 -5.34375 C 15.570312 -5.019531 15.578125 -4.65625 15.578125 -4.25 C 15.578125 -3.84375 15.578125 -3.320312 15.578125 -2.6875 C 15.578125 -2.007812 15.6875 -1.492188 15.90625 -1.140625 C 16.125 -0.796875 16.375 -0.554688 16.65625 -0.421875 C 16.945312 -0.296875 17.195312 -0.234375 17.40625 -0.234375 L 17.40625 0 L 15.703125 0 C 15.054688 0 14.515625 -0.269531 14.078125 -0.8125 C 13.640625 -1.351562 13.421875 -2.070312 13.421875 -2.96875 L 13.421875 -7.078125 C 13.210938 -6.046875 12.941406 -5.070312 12.609375 -4.15625 C 12.273438 -3.25 11.851562 -2.441406 11.34375 -1.734375 C 10.84375 -1.035156 10.21875 -0.488281 9.46875 -0.09375 C 8.726562 0.289062 7.832031 0.484375 6.78125 0.484375 C 5.757812 0.484375 4.84375 0.253906 4.03125 -0.203125 C 3.226562 -0.660156 2.59375 -1.289062 2.125 -2.09375 C 1.664062 -2.90625 1.4375 -3.820312 1.4375 -4.84375 Z M 1.4375 -4.84375 "/></g></g></g><g fill="#ffe5b7" fill-opacity="1"><g transform="translate(263.829338, 85.235084)"><g><path d="M -1.203125 9.921875 L -1.03125 9.6875 C -0.664062 9.96875 -0.203125 10.109375 0.359375 10.109375 C 0.898438 10.109375 1.332031 9.957031 1.65625 9.65625 C 1.988281 9.351562 2.234375 8.96875 2.390625 8.5 C 2.554688 8.03125 2.664062 7.535156 2.71875 7.015625 C 2.769531 6.492188 2.796875 6.015625 2.796875 5.578125 L 2.796875 -10.3125 C 2.796875 -11.882812 2.753906 -13.140625 2.671875 -14.078125 C 2.597656 -15.015625 2.40625 -15.691406 2.09375 -16.109375 C 1.78125 -16.523438 1.28125 -16.734375 0.59375 -16.734375 L 0.59375 -16.96875 L 4.859375 -16.96875 L 4.859375 5.21875 C 4.859375 5.832031 4.769531 6.445312 4.59375 7.0625 C 4.425781 7.675781 4.160156 8.238281 3.796875 8.75 C 3.441406 9.257812 3 9.671875 2.46875 9.984375 C 1.9375 10.296875 1.320312 10.453125 0.625 10.453125 C 0.207031 10.453125 -0.140625 10.398438 -0.421875 10.296875 C -0.710938 10.203125 -0.972656 10.078125 -1.203125 9.921875 Z M 3.828125 -21.71875 C 4.273438 -21.71875 4.65625 -21.5625 4.96875 -21.25 C 5.28125 -20.9375 5.4375 -20.554688 5.4375 -20.109375 C 5.4375 -19.660156 5.28125 -19.28125 4.96875 -18.96875 C 4.65625 -18.65625 4.273438 -18.5 3.828125 -18.5 C 3.378906 -18.5 3 -18.65625 2.6875 -18.96875 C 2.382812 -19.28125 2.234375 -19.660156 2.234375 -20.109375 C 2.234375 -20.554688 2.382812 -20.9375 2.6875 -21.25 C 3 -21.5625 3.378906 -21.71875 3.828125 -21.71875 Z M 3.828125 -21.71875 "/></g></g></g><g fill="#ffe5b7" fill-opacity="1"><g transform="translate(270.709834, 85.235084)"><g><path d="M 9.65625 0.484375 C 8.363281 0.484375 7.207031 0.253906 6.1875 -0.203125 C 5.175781 -0.671875 4.316406 -1.316406 3.609375 -2.140625 C 2.910156 -2.960938 2.375 -3.914062 2 -5 C 1.625 -6.09375 1.4375 -7.253906 1.4375 -8.484375 C 1.4375 -9.710938 1.625 -10.867188 2 -11.953125 C 2.375 -13.046875 2.910156 -14.003906 3.609375 -14.828125 C 4.316406 -15.648438 5.175781 -16.289062 6.1875 -16.75 C 7.207031 -17.21875 8.363281 -17.453125 9.65625 -17.453125 C 10.945312 -17.453125 12.054688 -17.28125 12.984375 -16.9375 C 13.910156 -16.601562 14.671875 -16.164062 15.265625 -15.625 C 15.859375 -15.082031 16.296875 -14.488281 16.578125 -13.84375 C 16.859375 -13.207031 17 -12.585938 17 -11.984375 C 16.976562 -10.628906 16.59375 -9.566406 15.84375 -8.796875 C 15.09375 -8.023438 14.03125 -7.640625 12.65625 -7.640625 C 11.695312 -7.640625 10.878906 -7.75 10.203125 -7.96875 C 9.523438 -8.1875 8.925781 -8.429688 8.40625 -8.703125 C 7.882812 -8.984375 7.378906 -9.234375 6.890625 -9.453125 C 6.398438 -9.671875 5.859375 -9.78125 5.265625 -9.78125 C 4.984375 -9.78125 4.722656 -9.703125 4.484375 -9.546875 C 4.253906 -9.398438 4.125 -9.28125 4.09375 -9.1875 L 4 -9.203125 C 4 -9.703125 4.207031 -10.144531 4.625 -10.53125 C 5.050781 -10.925781 5.679688 -11.125 6.515625 -11.125 C 7.140625 -11.125 7.726562 -10.960938 8.28125 -10.640625 C 8.84375 -10.316406 9.378906 -9.941406 9.890625 -9.515625 C 10.410156 -9.097656 10.910156 -8.726562 11.390625 -8.40625 C 11.867188 -8.09375 12.347656 -7.9375 12.828125 -7.9375 C 13.410156 -7.9375 13.894531 -8.160156 14.28125 -8.609375 C 14.664062 -9.054688 14.929688 -9.625 15.078125 -10.3125 C 15.234375 -11.007812 15.25 -11.753906 15.125 -12.546875 C 15 -13.335938 14.71875 -14.078125 14.28125 -14.765625 C 13.851562 -15.460938 13.253906 -16.035156 12.484375 -16.484375 C 11.722656 -16.929688 10.765625 -17.15625 9.609375 -17.15625 C 8.640625 -17.15625 7.800781 -16.96875 7.09375 -16.59375 C 6.394531 -16.21875 5.8125 -15.71875 5.34375 -15.09375 C 4.882812 -14.476562 4.515625 -13.789062 4.234375 -13.03125 C 3.953125 -12.28125 3.753906 -11.515625 3.640625 -10.734375 C 3.523438 -9.953125 3.476562 -9.226562 3.5 -8.5625 C 3.507812 -7.4375 3.675781 -6.378906 4 -5.390625 C 4.320312 -4.398438 4.78125 -3.523438 5.375 -2.765625 C 5.976562 -2.003906 6.710938 -1.40625 7.578125 -0.96875 C 8.441406 -0.539062 9.421875 -0.328125 10.515625 -0.328125 C 10.992188 -0.328125 11.53125 -0.398438 12.125 -0.546875 C 12.71875 -0.691406 13.3125 -0.921875 13.90625 -1.234375 C 14.507812 -1.554688 15.0625 -1.984375 15.5625 -2.515625 C 16.070312 -3.046875 16.46875 -3.691406 16.75 -4.453125 L 17.09375 -4.3125 C 16.46875 -2.894531 15.519531 -1.738281 14.25 -0.84375 C 12.976562 0.0390625 11.445312 0.484375 9.65625 0.484375 Z M 9.65625 0.484375 "/></g></g></g><g fill="#ffe5b7" fill-opacity="1"><g transform="translate(289.241619, 85.235084)"><g/></g></g><g fill="#ffe5b7" fill-opacity="1"><g transform="translate(297.632469, 85.235084)"><g><path d="M 1.4375 -0.984375 L 1.4375 -3.90625 L 1.671875 -3.90625 C 1.671875 -3.613281 1.796875 -3.234375 2.046875 -2.765625 C 2.296875 -2.304688 2.664062 -1.84375 3.15625 -1.375 C 3.65625 -0.90625 4.265625 -0.515625 4.984375 -0.203125 C 5.703125 0.109375 6.535156 0.253906 7.484375 0.234375 C 8.359375 0.222656 9.191406 0.0507812 9.984375 -0.28125 C 10.773438 -0.625 11.421875 -1.113281 11.921875 -1.75 C 12.421875 -2.382812 12.671875 -3.164062 12.671875 -4.09375 C 12.671875 -4.8125 12.472656 -5.394531 12.078125 -5.84375 C 11.691406 -6.289062 11.175781 -6.65625 10.53125 -6.9375 C 9.882812 -7.226562 9.171875 -7.484375 8.390625 -7.703125 C 7.609375 -7.929688 6.828125 -8.175781 6.046875 -8.4375 C 5.273438 -8.695312 4.566406 -9.015625 3.921875 -9.390625 C 3.273438 -9.773438 2.753906 -10.28125 2.359375 -10.90625 C 1.972656 -11.53125 1.78125 -12.320312 1.78125 -13.28125 C 1.78125 -14.03125 2 -14.71875 2.4375 -15.34375 C 2.875 -15.976562 3.53125 -16.488281 4.40625 -16.875 C 5.289062 -17.257812 6.378906 -17.453125 7.671875 -17.453125 C 8.679688 -17.453125 9.5625 -17.367188 10.3125 -17.203125 C 11.0625 -17.035156 11.675781 -16.835938 12.15625 -16.609375 C 12.644531 -16.390625 13.007812 -16.191406 13.25 -16.015625 C 13.488281 -15.847656 13.609375 -15.765625 13.609375 -15.765625 L 13.609375 -12.9375 L 13.515625 -12.9375 C 13.054688 -14.3125 12.328125 -15.363281 11.328125 -16.09375 C 10.328125 -16.832031 9.1875 -17.203125 7.90625 -17.203125 C 6.90625 -17.203125 6.046875 -17.039062 5.328125 -16.71875 C 4.617188 -16.394531 4.078125 -15.96875 3.703125 -15.4375 C 3.335938 -14.90625 3.15625 -14.335938 3.15625 -13.734375 C 3.15625 -13.023438 3.363281 -12.441406 3.78125 -11.984375 C 4.195312 -11.535156 4.742188 -11.160156 5.421875 -10.859375 C 6.109375 -10.566406 6.859375 -10.300781 7.671875 -10.0625 C 8.484375 -9.820312 9.296875 -9.566406 10.109375 -9.296875 C 10.929688 -9.023438 11.679688 -8.6875 12.359375 -8.28125 C 13.035156 -7.882812 13.582031 -7.375 14 -6.75 C 14.414062 -6.132812 14.625 -5.351562 14.625 -4.40625 C 14.625 -3.53125 14.425781 -2.78125 14.03125 -2.15625 C 13.644531 -1.53125 13.113281 -1.023438 12.4375 -0.640625 C 11.769531 -0.265625 11.007812 0.015625 10.15625 0.203125 C 9.300781 0.390625 8.410156 0.484375 7.484375 0.484375 C 4.972656 0.484375 2.957031 -0.00390625 1.4375 -0.984375 Z M 1.4375 -0.984375 "/></g></g></g><g fill="#ffe5b7" fill-opacity="1"><g transform="translate(313.69495, 85.235084)"><g><path d="M 9.65625 0.484375 C 8.363281 0.484375 7.207031 0.253906 6.1875 -0.203125 C 5.175781 -0.671875 4.316406 -1.316406 3.609375 -2.140625 C 2.910156 -2.960938 2.375 -3.914062 2 -5 C 1.625 -6.09375 1.4375 -7.253906 1.4375 -8.484375 C 1.4375 -9.710938 1.625 -10.867188 2 -11.953125 C 2.375 -13.046875 2.910156 -14.003906 3.609375 -14.828125 C 4.316406 -15.648438 5.175781 -16.289062 6.1875 -16.75 C 7.207031 -17.21875 8.363281 -17.453125 9.65625 -17.453125 C 10.945312 -17.453125 12.097656 -17.21875 13.109375 -16.75 C 14.128906 -16.289062 15 -15.648438 15.71875 -14.828125 C 16.4375 -14.003906 16.984375 -13.046875 17.359375 -11.953125 C 17.734375 -10.867188 17.921875 -9.710938 17.921875 -8.484375 C 17.921875 -7.253906 17.734375 -6.09375 17.359375 -5 C 16.984375 -3.914062 16.4375 -2.960938 15.71875 -2.140625 C 15 -1.316406 14.128906 -0.671875 13.109375 -0.203125 C 12.097656 0.253906 10.945312 0.484375 9.65625 0.484375 Z M 3.46875 -8.484375 C 3.46875 -6.722656 3.722656 -5.191406 4.234375 -3.890625 C 4.753906 -2.585938 5.476562 -1.582031 6.40625 -0.875 C 7.34375 -0.164062 8.425781 0.1875 9.65625 0.1875 C 10.90625 0.1875 11.992188 -0.164062 12.921875 -0.875 C 13.859375 -1.582031 14.585938 -2.585938 15.109375 -3.890625 C 15.628906 -5.191406 15.890625 -6.722656 15.890625 -8.484375 C 15.890625 -10.242188 15.628906 -11.773438 15.109375 -13.078125 C 14.585938 -14.378906 13.859375 -15.382812 12.921875 -16.09375 C 11.992188 -16.800781 10.90625 -17.15625 9.65625 -17.15625 C 8.425781 -17.15625 7.34375 -16.800781 6.40625 -16.09375 C 5.476562 -15.382812 4.753906 -14.378906 4.234375 -13.078125 C 3.722656 -11.773438 3.46875 -10.242188 3.46875 -8.484375 Z M 3.46875 -8.484375 "/></g></g></g><g fill="#ffe5b7" fill-opacity="1"><g transform="translate(333.065816, 85.235084)"><g><path d="M 9.65625 0.484375 C 8.363281 0.484375 7.207031 0.253906 6.1875 -0.203125 C 5.175781 -0.671875 4.316406 -1.316406 3.609375 -2.140625 C 2.910156 -2.960938 2.375 -3.914062 2 -5 C 1.625 -6.09375 1.4375 -7.253906 1.4375 -8.484375 C 1.4375 -9.710938 1.625 -10.867188 2 -11.953125 C 2.375 -13.046875 2.910156 -14.003906 3.609375 -14.828125 C 4.316406 -15.648438 5.175781 -16.289062 6.1875 -16.75 C 7.207031 -17.21875 8.363281 -17.453125 9.65625 -17.453125 C 10.664062 -17.453125 11.582031 -17.367188 12.40625 -17.203125 C 13.226562 -17.035156 13.925781 -16.835938 14.5 -16.609375 C 15.070312 -16.390625 15.515625 -16.191406 15.828125 -16.015625 C 16.140625 -15.847656 16.296875 -15.765625 16.296875 -15.765625 L 16.296875 -12.9375 L 16.203125 -12.9375 C 15.773438 -13.820312 15.203125 -14.578125 14.484375 -15.203125 C 13.765625 -15.835938 12.984375 -16.320312 12.140625 -16.65625 C 11.296875 -16.988281 10.453125 -17.15625 9.609375 -17.15625 C 8.640625 -17.15625 7.800781 -16.96875 7.09375 -16.59375 C 6.394531 -16.21875 5.8125 -15.71875 5.34375 -15.09375 C 4.882812 -14.476562 4.515625 -13.789062 4.234375 -13.03125 C 3.953125 -12.28125 3.753906 -11.515625 3.640625 -10.734375 C 3.523438 -9.953125 3.476562 -9.226562 3.5 -8.5625 C 3.507812 -7.4375 3.675781 -6.378906 4 -5.390625 C 4.320312 -4.398438 4.78125 -3.523438 5.375 -2.765625 C 5.976562 -2.003906 6.710938 -1.40625 7.578125 -0.96875 C 8.441406 -0.539062 9.421875 -0.328125 10.515625 -0.328125 C 10.992188 -0.328125 11.53125 -0.398438 12.125 -0.546875 C 12.71875 -0.691406 13.3125 -0.921875 13.90625 -1.234375 C 14.507812 -1.554688 15.0625 -1.984375 15.5625 -2.515625 C 16.070312 -3.046875 16.46875 -3.691406 16.75 -4.453125 L 17.09375 -4.3125 C 16.46875 -2.894531 15.519531 -1.738281 14.25 -0.84375 C 12.976562 0.0390625 11.445312 0.484375 9.65625 0.484375 Z M 9.65625 0.484375 "/></g></g></g><g fill="#ffe5b7" fill-opacity="1"><g transform="translate(350.638651, 85.235084)"><g><path d="M 7.1875 0 L 0.71875 0 L 0.71875 -0.234375 C 1.40625 -0.234375 1.90625 -0.441406 2.21875 -0.859375 C 2.53125 -1.273438 2.722656 -1.953125 2.796875 -2.890625 C 2.878906 -3.835938 2.921875 -5.09375 2.921875 -6.65625 L 2.921875 -10.3125 C 2.921875 -11.882812 2.878906 -13.140625 2.796875 -14.078125 C 2.722656 -15.015625 2.53125 -15.691406 2.21875 -16.109375 C 1.90625 -16.523438 1.40625 -16.734375 0.71875 -16.734375 L 0.71875 -16.96875 L 4.984375 -16.96875 L 4.984375 -6.65625 C 4.984375 -5.09375 5.019531 -3.835938 5.09375 -2.890625 C 5.175781 -1.953125 5.375 -1.273438 5.6875 -0.859375 C 6 -0.441406 6.5 -0.234375 7.1875 -0.234375 Z M 2.234375 -20.109375 C 2.234375 -20.554688 2.382812 -20.9375 2.6875 -21.25 C 3 -21.5625 3.378906 -21.71875 3.828125 -21.71875 C 4.273438 -21.71875 4.65625 -21.5625 4.96875 -21.25 C 5.28125 -20.9375 5.4375 -20.554688 5.4375 -20.109375 C 5.4375 -19.660156 5.28125 -19.28125 4.96875 -18.96875 C 4.65625 -18.65625 4.273438 -18.5 3.828125 -18.5 C 3.378906 -18.5 3 -18.65625 2.6875 -18.96875 C 2.382812 -19.28125 2.234375 -19.660156 2.234375 -20.109375 Z M 2.234375 -20.109375 "/></g></g></g><g fill="#ffe5b7" fill-opacity="1"><g transform="translate(358.310282, 85.235084)"><g><path d="M 1.4375 -4.84375 C 1.4375 -6.039062 1.65625 -7.035156 2.09375 -7.828125 C 2.53125 -8.617188 3.109375 -9.257812 3.828125 -9.75 C 4.546875 -10.25 5.335938 -10.644531 6.203125 -10.9375 C 7.066406 -11.238281 7.929688 -11.488281 8.796875 -11.6875 C 9.660156 -11.882812 10.453125 -12.085938 11.171875 -12.296875 C 11.890625 -12.515625 12.46875 -12.789062 12.90625 -13.125 C 13.34375 -13.46875 13.5625 -13.921875 13.5625 -14.484375 C 13.5625 -15.128906 13.34375 -15.648438 12.90625 -16.046875 C 12.476562 -16.453125 11.945312 -16.742188 11.3125 -16.921875 C 10.675781 -17.109375 10.03125 -17.203125 9.375 -17.203125 C 8.625 -17.203125 7.90625 -17.109375 7.21875 -16.921875 C 6.53125 -16.742188 5.96875 -16.453125 5.53125 -16.046875 C 5.101562 -15.640625 4.890625 -15.097656 4.890625 -14.421875 C 4.890625 -13.984375 5.019531 -13.660156 5.28125 -13.453125 C 5.550781 -13.253906 5.738281 -13.210938 5.84375 -13.328125 C 5.976562 -12.972656 5.890625 -12.648438 5.578125 -12.359375 C 5.265625 -12.078125 4.90625 -11.9375 4.5 -11.9375 C 3.988281 -11.9375 3.570312 -12.128906 3.25 -12.515625 C 2.9375 -12.898438 2.78125 -13.347656 2.78125 -13.859375 C 2.78125 -14.648438 3.066406 -15.3125 3.640625 -15.84375 C 4.210938 -16.375 5 -16.773438 6 -17.046875 C 7 -17.316406 8.125 -17.453125 9.375 -17.453125 C 10.039062 -17.453125 10.738281 -17.382812 11.46875 -17.25 C 12.195312 -17.113281 12.867188 -16.910156 13.484375 -16.640625 C 14.109375 -16.378906 14.617188 -16.0625 15.015625 -15.6875 C 15.410156 -15.320312 15.609375 -14.898438 15.609375 -14.421875 C 15.609375 -13.941406 15.4375 -13.554688 15.09375 -13.265625 C 14.757812 -12.984375 14.304688 -12.757812 13.734375 -12.59375 C 13.160156 -12.425781 12.515625 -12.269531 11.796875 -12.125 C 11.078125 -11.976562 10.335938 -11.8125 9.578125 -11.625 C 8.816406 -11.445312 8.078125 -11.195312 7.359375 -10.875 C 6.640625 -10.5625 5.988281 -10.148438 5.40625 -9.640625 C 4.832031 -9.128906 4.378906 -8.46875 4.046875 -7.65625 C 3.710938 -6.851562 3.546875 -5.867188 3.546875 -4.703125 C 3.546875 -3.867188 3.707031 -3.117188 4.03125 -2.453125 C 4.363281 -1.796875 4.820312 -1.273438 5.40625 -0.890625 C 6 -0.503906 6.691406 -0.3125 7.484375 -0.3125 C 8.140625 -0.3125 8.804688 -0.484375 9.484375 -0.828125 C 10.160156 -1.179688 10.789062 -1.742188 11.375 -2.515625 C 11.96875 -3.285156 12.441406 -4.28125 12.796875 -5.5 C 13.160156 -6.71875 13.34375 -8.203125 13.34375 -9.953125 C 13.34375 -10.222656 13.316406 -10.472656 13.265625 -10.703125 C 13.222656 -10.929688 13.113281 -11.070312 12.9375 -11.125 C 12.9375 -11.195312 12.992188 -11.269531 13.109375 -11.34375 C 13.234375 -11.414062 13.394531 -11.453125 13.59375 -11.453125 C 14.1875 -11.453125 14.617188 -11.269531 14.890625 -10.90625 C 15.160156 -10.550781 15.335938 -10.085938 15.421875 -9.515625 C 15.515625 -8.953125 15.5625 -8.351562 15.5625 -7.71875 C 15.5625 -7.1875 15.5625 -6.738281 15.5625 -6.375 C 15.5625 -6.019531 15.5625 -5.675781 15.5625 -5.34375 C 15.570312 -5.019531 15.578125 -4.65625 15.578125 -4.25 C 15.578125 -3.84375 15.578125 -3.320312 15.578125 -2.6875 C 15.578125 -2.007812 15.6875 -1.492188 15.90625 -1.140625 C 16.125 -0.796875 16.375 -0.554688 16.65625 -0.421875 C 16.945312 -0.296875 17.195312 -0.234375 17.40625 -0.234375 L 17.40625 0 L 15.703125 0 C 15.054688 0 14.515625 -0.269531 14.078125 -0.8125 C 13.640625 -1.351562 13.421875 -2.070312 13.421875 -2.96875 L 13.421875 -7.078125 C 13.210938 -6.046875 12.941406 -5.070312 12.609375 -4.15625 C 12.273438 -3.25 11.851562 -2.441406 11.34375 -1.734375 C 10.84375 -1.035156 10.21875 -0.488281 9.46875 -0.09375 C 8.726562 0.289062 7.832031 0.484375 6.78125 0.484375 C 5.757812 0.484375 4.84375 0.253906 4.03125 -0.203125 C 3.226562 -0.660156 2.59375 -1.289062 2.125 -2.09375 C 1.664062 -2.90625 1.4375 -3.820312 1.4375 -4.84375 Z M 1.4375 -4.84375 "/></g></g></g><g fill="#ffe5b7" fill-opacity="1"><g transform="translate(376.194765, 85.235084)"><g><path d="M 0.71875 0 L 0.71875 -0.234375 C 1.40625 -0.234375 1.90625 -0.441406 2.21875 -0.859375 C 2.53125 -1.273438 2.722656 -1.953125 2.796875 -2.890625 C 2.878906 -3.835938 2.921875 -5.09375 2.921875 -6.65625 L 2.921875 -17.3125 C 2.921875 -18.882812 2.878906 -20.140625 2.796875 -21.078125 C 2.722656 -22.015625 2.53125 -22.691406 2.21875 -23.109375 C 1.90625 -23.523438 1.40625 -23.734375 0.71875 -23.734375 L 0.71875 -23.96875 L 4.984375 -23.96875 L 4.984375 -6.65625 C 4.984375 -5.09375 5.019531 -3.835938 5.09375 -2.890625 C 5.175781 -1.953125 5.375 -1.273438 5.6875 -0.859375 C 6 -0.441406 6.5 -0.234375 7.1875 -0.234375 L 7.1875 0 Z M 0.71875 0 "/></g></g></g><g fill="#ffe5b7" fill-opacity="1"><g transform="translate(384.114214, 85.235084)"><g/></g></g></svg>